# xmcd CD database file
#
# Track frame offsets:
#	150
#	22547
#	39656
#	59962
#	77657
#	108039
#	131955
#	162874
#
# Disc length: 2637 seconds
#
# Revision: 0
# Processed by: cddbd v1.5.1PL0 Copyright (c) Steve Scherf et al.
# Submitted via: CDex 1.51
#
DISCID=600a4b08
DTITLE=Yngwie Malmsteen - Danville Force (Disc1)
DYEAR=1988
DGENRE=Heavy Metal
TTITLE0=Rising Force
TTITLE1=Liar
TTITLE2=Queen In Love
TTITLE3=Deja Vu
TTITLE4=You Don't Remember, I'll Never Forget
TTITLE5=Jens Yohansson's Keyboard Solo
TTITLE6=Crystal Ball
TTITLE7=Adagio-Free Form Improvisation
EXTD=YEAR: 1988
EXTT0=
EXTT1=
EXTT2=
EXTT3=
EXTT4=
EXTT5=
EXTT6=
EXTT7=
PLAYORDER=
